HIERARCHY
ROOT RootJoint
{
    OFFSET   0.000000   0.000000   0.000000
    CHANNELS 6 Xposition Yposition Zposition Xrotation Yrotation Zrotation
    JOINT pelvis_lowerback
    {
        OFFSET   0.000000   0.093605   0.000000
        CHANNELS 3 Xrotation Yrotation Zrotation
        JOINT lowerback_torso
        {
            OFFSET   0.000000   0.100000   0.000000
            CHANNELS 3 Xrotation Yrotation Zrotation
            JOINT torso_head
            {
                OFFSET   0.000000   0.282350   0.000000
                CHANNELS 3 Xrotation Yrotation Zrotation
                End Site
                {
                    OFFSET   0.000000   0.192650   0.000000
                }
            }
            JOINT rTorso_Clavicle
            {
                OFFSET  -0.001000   0.157500   0.000000
                CHANNELS 3 Xrotation Yrotation Zrotation
                JOINT rShoulder
                {
                    OFFSET  -0.117647   0.000000   0.000000
                    CHANNELS 3 Xrotation Yrotation Zrotation
                    JOINT rElbow
                    {
                        OFFSET  -0.245000   0.000000   0.000000
                        CHANNELS 3 Xrotation Yrotation Zrotation
                        JOINT rWrist
                        {
                            OFFSET  -0.240000   0.000000   0.000000
                            CHANNELS 3 Xrotation Yrotation Zrotation
                            End Site
                            {
                                OFFSET  -0.116353  -0.002500   0.000000
                            }
                        }
                    }
                }
            }
            JOINT lTorso_Clavicle
            {
                OFFSET   0.001000   0.157500   0.000000
                CHANNELS 3 Xrotation Yrotation Zrotation
                JOINT lShoulder
                {
                    OFFSET   0.117647   0.000000   0.000000
                    CHANNELS 3 Xrotation Yrotation Zrotation
                    JOINT lElbow
                    {
                        OFFSET   0.245000   0.000000   0.000000
                        CHANNELS 3 Xrotation Yrotation Zrotation
                        JOINT lWrist
                        {
                            OFFSET   0.240000   0.000000   0.000000
                            CHANNELS 3 Xrotation Yrotation Zrotation
                            End Site
                            {
                                OFFSET   0.116353  -0.002500   0.000000
                            }
                        }
                    }
                }
            }
        }
    }
    JOINT rHip
    {
        OFFSET  -0.100000  -0.051395   0.000000
        CHANNELS 3 Xrotation Yrotation Zrotation
        JOINT rKnee
        {
            OFFSET   0.000000  -0.410000   0.000000
            CHANNELS 3 Xrotation Yrotation Zrotation
            JOINT rAnkle
            {
                OFFSET   0.000000  -0.390000   0.000000
                CHANNELS 3 Xrotation Yrotation Zrotation
                JOINT rToeJoint
                {
                    OFFSET   0.000000  -0.050000   0.130000
                    CHANNELS 3 Xrotation Yrotation Zrotation
                    End Site
                    {
                        OFFSET  -0.010000   0.002000   0.060000
                    }
                }
            }
        }
    }
    JOINT lHip
    {
        OFFSET   0.100000  -0.051395   0.000000
        CHANNELS 3 Xrotation Yrotation Zrotation
        JOINT lKnee
        {
            OFFSET   0.000000  -0.410000   0.000000
            CHANNELS 3 Xrotation Yrotation Zrotation
            JOINT lAnkle
            {
                OFFSET   0.000000  -0.390000   0.000000
                CHANNELS 3 Xrotation Yrotation Zrotation
                JOINT lToeJoint
                {
                    OFFSET   0.000000  -0.050000   0.130000
                    CHANNELS 3 Xrotation Yrotation Zrotation
                    End Site
                    {
                        OFFSET   0.010000   0.002000   0.060000
                    }
                }
            }
        }
    }
}
MOTION
Frames: 8
Frame Time:   0.008333
 -2.376719   0.925631   3.975860   0.000000   0.000000   0.000000   0.000000   0.000000   0.000000   0.000000   0.000000   0.000000   0.000000   0.000000   0.000000   0.000000   0.000000   0.000000   0.000000   0.000000   0.000000   0.000000   0.000000   0.000000   0.000000   0.000000   0.000000   0.000000   0.000000   0.000000   0.000000   0.000000   0.000000   0.000000   0.000000   0.000000   0.000000   0.000000   0.000000   0.000000   0.000000   0.000000   0.000000   0.000000   0.000000   0.000000   0.000000   0.000000   0.000000   0.000000   0.000000   0.000000   0.000000   0.000000   0.000000   0.000000   0.000000   0.000000   0.000000   0.000000   0.000000   0.000000   0.000000
 -2.377236   0.924710   3.975060  -0.808219  -0.534923  -0.257759   1.111113   0.291731   0.117688  -0.126479  -0.288319   0.041497  -0.044316  -0.056461   0.334179  -0.223617  -0.013570  -0.347184  -0.248787   0.685767   0.884476   0.013044   3.431117   0.008282  -0.304282  -2.029111  -0.522735  -0.537863   0.499934   0.457842  -1.838847   0.459512  -0.501564   0.002182  -2.566465  -0.049288  -0.361661   1.059335   0.669090  -0.038332   0.376680   0.385912   3.062244  -0.003557  -0.004105  -2.965855  -0.096665  -0.273190   0.089422   0.000115  -0.000202  -0.240870   0.390436   0.325390   3.160704  -0.001948  -0.003886  -0.700973   0.460405  -0.204618  -0.221521  -0.000256  -0.000619
 -2.377872   0.924311   3.974119  -1.814206  -1.229749  -0.389222   2.209455   0.633861   0.066379  -0.136986  -0.468762   0.058330  -0.041933  -0.131671   0.654108  -0.429624   0.276416  -0.491511  -0.499679   1.624874   1.848440   0.030413   7.055243   0.017130  -0.613802  -2.858348  -0.876204  -1.060131   0.855308   0.834837  -3.568910   0.782125  -0.994289   0.002993  -5.065301  -0.086971  -0.781313   1.361324   1.314461   0.153242   0.731448   0.684877   6.519130  -0.009208  -0.012805  -5.729334  -0.174711  -0.528466   0.100807   0.000100  -0.000203  -0.538304   0.702607   0.500018   5.995821  -0.003509  -0.012259  -2.190690   0.837423  -0.232926  -0.680593  -0.000097  -0.000499
 -2.378602   0.924081   3.973338  -2.861560  -2.011787  -0.525939   3.187284   1.029927   0.016294  -0.145560  -0.551160   0.073844  -0.041447  -0.205617   0.940407  -0.615087   0.752909  -0.541063  -0.751991   2.661920   2.822526   0.046699  10.750986   0.028245  -0.908374  -3.120849  -1.046168  -1.547392   1.078436   1.142391  -5.180858   1.011429  -1.487362   0.001761  -7.436943  -0.115172  -1.183535   1.342483   1.839701   0.558056   1.064953   1.011927   9.904339  -0.016222  -0.021919  -8.300248  -0.236095  -0.768308   0.136232   0.000088  -0.000320  -0.879995   1.053196   0.676173   8.979270  -0.005832  -0.020446  -3.323519   1.257765  -0.285370  -1.710117   0.000117  -0.000409
 -2.379394   0.923713   3.972743  -3.872509  -2.823426  -0.693311   4.027577   1.460082  -0.002993  -0.197019  -0.563784   0.108463  -0.057139  -0.275604   1.203504  -0.782775   1.333312  -0.544327  -1.005785   3.730316   3.774479   0.059280  14.488218   0.040976  -1.189646  -3.090577  -1.090087  -2.001381   1.215608   1.405105  -6.682508   1.185248  -1.969857  -0.001716  -9.673321  -0.135573  -1.566796   1.168260   2.260671   1.102039   1.379379   1.372485  13.127873  -0.023453  -0.029119 -10.697783  -0.282864  -0.994034   0.169374   0.000065  -0.000411  -1.243892   1.413527   0.879719  11.918471  -0.008569  -0.027025  -4.203117   1.687679  -0.364975  -3.023446   0.000291  -0.000296
 -2.380214   0.923035   3.972290  -4.816880  -3.626002  -0.878735   4.744962   1.907043   0.003262  -0.295087  -0.528323   0.164298  -0.089653  -0.341522   1.448703  -0.934980   1.965456  -0.521017  -1.259989   4.792167   4.690873   0.067422  18.251126   0.054026  -1.459319  -2.896885  -1.056680  -2.424346   1.299583   1.640809  -8.081573   1.327390  -2.430572  -0.006981 -11.773868  -0.149171  -1.932231   0.915493   2.615619   1.734641   1.677101   1.741683  16.179306  -0.030017  -0.033648 -12.934802  -0.317280  -1.206756   0.196464   0.000039  -0.000454  -1.622458   1.765518   1.096892  14.736885  -0.011263  -0.031510  -4.918877   2.109471  -0.467417  -4.435194   0.000402  -0.000195
 -2.381036   0.921973   3.971917  -5.683446  -4.406634  -1.064905   5.361053   2.363401   0.025817  -0.429929  -0.456179   0.236920  -0.135402  -0.403417   1.678018  -1.073444   2.618090  -0.480984  -1.513134   5.826541   5.566086   0.071415  22.030666   0.066280  -1.718377  -2.609303  -0.978670  -2.818536   1.352815   1.860064  -9.385307   1.452674  -2.862663  -0.013295 -13.741620  -0.156854  -2.280771   0.626388   2.936223   2.421147   1.961216   2.097528  19.060709  -0.035480  -0.035787 -15.022077  -0.341302  -1.407156   0.219176   0.000016  -0.000463  -2.011061   2.091829   1.311753  17.402883  -0.013721  -0.034351  -5.536921   2.504258  -0.588992  -5.828123   0.000445   0.000176
 -2.381448   0.920116   3.970655  -6.025283  -4.798529  -0.881704   5.777313   2.556935  -0.230993  -0.800819  -0.427940   0.257616  -0.309348  -0.311602   1.758224  -1.269898   3.076461  -0.591972  -1.568239   7.022380   6.488746   0.072157  25.805240   0.067870  -2.025212  -2.342221  -0.819543  -3.210784   1.287267   2.148351 -10.933529   1.665998  -3.238885  -0.022051 -15.650008  -0.165493  -2.773018   0.349956   3.291888   3.155904   2.088678   1.978537  20.100266  -0.030835  -0.030023 -16.467286  -0.397239  -1.606478   0.253177   0.000027  -0.000464  -3.325208   2.229666   1.159532  20.214945  -0.013909  -0.032420  -6.864573   2.541782  -0.850011  -5.361264   0.001402  -0.000567
